<svg id="Layer_1" data-name="Layer 1" xmlns="http://www.w3.org/2000/svg" xmlns:xlink="http://www.w3.org/1999/xlink" viewBox="0 0 1366 768"><defs><clipPath id="clip-path"><path d="M1221.53,442.94c-5.89-.6-10.41-5.68-12.78-11.1-12.2-28-8.43-61.9,3.93-89.12.07-.13.13-.27.19-.41.81-1.75,1.65-3.48,2.56-5.18,4.89-9.24,12.14-20.17,21.46-25.48a13.75,13.75,0,0,1,16.5,1.88c5,4.61,6.42,11.88,7.76,18.23a118.85,118.85,0,0,1,2.22,23.58,135.83,135.83,0,0,1-6.17,41.41c-.55,1.72-1.12,3.43-1.73,5.13-4.19,11.69-9.2,23.25-17.34,32.8-3.87,4.54-9,8.33-15.11,8.33-.49,0-1,0-1.49-.07m-46-122.67a82.16,82.16,0,0,0-24.35,68.41q.38,3.15,1,6.25c4.9,25.71,16.84,46.74,42.7,57.29,32.34,13.2,73.15,2.29,98.2-27.71,21.77-26.09,26.79-56,12.89-87.05-9.92-22.15-29-36.58-52.91-40.55a93.57,93.57,0,0,0-15.37-1.27c-22.92,0-45.49,8.41-62.12,24.63" fill="none"/></clipPath><linearGradient id="linear-gradient" x1="385.98" y1="805.44" x2="389.14" y2="805.44" gradientTransform="matrix(410.19, 0, 0, -410.19, -158284.67, 330762.78)" gradientUnits="userSpaceOnUse"><stop offset="0" stop-color="#8338ec"/><stop offset="0.1" stop-color="#8338ec"/><stop offset="1" stop-color="#3a86ff"/></linearGradient><clipPath id="clip-path-2"><path d="M140.33,416.39C114.2,420.47,90.82,435.1,74.83,456a111.46,111.46,0,0,0-17.28,32.68c-3.8,11.51-4.57,22.62-5.13,34.58a97.12,97.12,0,0,0,2,22.31c6.9,35.64,33.35,77.77,79.66,85.55,56.86,9.54,101-28.32,113.44-72.74.68-2.42,2-5.5-.65-6.82-3.23-1.62-4.12,2.13-5.16,4.08a189.81,189.81,0,0,1-20.43,30.85c-18.37,22.42-48.1,26.78-70.79,10.4A78.34,78.34,0,0,1,125.16,566,123,123,0,0,1,117,542.74q-.6-2.55-1.1-5.11c-5.71-29.57-3.62-66.23,13.64-91.83,14.35-21.26,44.48-20.22,56.47,1.81,3.82,7,3.61,14.53,3.43,22.15-.31,12.49,5.87,22.19,15.6,25.05,12.07,3.54,23.46-1.08,30.18-12.24,7.18-11.91,5.25-27.58-4.87-39.69-9.88-11.83-24.55-18.18-39-22.51a121.19,121.19,0,0,0-34.71-5.23,105.18,105.18,0,0,0-16.33,1.25" fill="none"/></clipPath><linearGradient id="linear-gradient-2" x1="385.98" y1="805.22" x2="389.14" y2="805.22" gradientTransform="matrix(410.19, 0, 0, -410.19, -158282.68, 330819.76)" xlink:href="#linear-gradient"/><clipPath id="clip-path-3"><path d="M599.27,242.61c-25,3.9-47.35,17.89-62.63,37.91a106.61,106.61,0,0,0-16.52,31.24c-3.64,11-4.37,21.63-4.91,33.07a93.46,93.46,0,0,0,1.92,21.33c6.59,34.08,31.88,74.36,76.16,81.79,54.36,9.12,96.61-27.07,108.46-69.54.64-2.32,1.89-5.26-.62-6.52-3.09-1.55-3.94,2-5,3.9a181.32,181.32,0,0,1-19.52,29.49c-17.57,21.44-46,25.61-67.68,9.94a74.93,74.93,0,0,1-24.22-29.59A116.67,116.67,0,0,1,577,363.41c-.39-1.62-.74-3.25-1.06-4.88-5.46-28.27-3.46-63.33,13.05-87.8,13.72-20.33,42.52-19.34,54,1.74,3.65,6.71,3.46,13.88,3.28,21.17-.29,11.94,5.62,21.21,14.93,23.95,11.53,3.38,22.42-1,28.85-11.7,6.85-11.39,5-26.37-4.66-37.95-9.45-11.31-23.48-17.38-37.29-21.52a115.92,115.92,0,0,0-33.19-5,100.62,100.62,0,0,0-15.6,1.2" fill="none"/></clipPath><linearGradient id="linear-gradient-3" x1="385.98" y1="805.5" x2="389.14" y2="805.5" gradientTransform="matrix(410.19, 0, 0, -410.19, -158285.1, 330758.96)" xlink:href="#linear-gradient"/><clipPath id="clip-path-4"><path d="M574.73,582.17c-2.64-10,1.27-20.88,8.25-28.23,7.44-7.85,19.75-8.74,29.52-12,5.15-1.72,5.54,1.62,5.53,5.84,0,3.47.07,6.93,0,10.39,0,1.68-.07,3.35-.18,5-.66,10.29-3.18,21-11,28.28A20.36,20.36,0,0,1,593,597.22c-8.15,0-15.74-5.44-18.27-15.05m28.06-118c-24,.8-50.35,8-65,28.26-5.09,7.05-8.35,14.37-6.37,23.22,2.16,9.72,10.14,19.2,19.93,21.79,8.33,2.21,17.47-1.89,23.45-7.54,7.3-6.88,7.33-16.62,5.85-25.9-1.77-11.14,4.2-18.24,14.42-17.09,9.06,1,15.5,6.73,20.16,14.19,4.12,6.6,9.71,16.4,5.18,24.1-3,5.06-9.4,7.26-14.6,9.2-7.66,2.86-15.73,4.33-23.69,6.09C566,544,550.94,549.79,541,563.71c-7.09,10-11.31,22.74-7.57,34.73,7.86,25.2,39,33.41,60.27,19.67,10.47-6.78,18.06-16.49,26.44-25.93a104.17,104.17,0,0,0,13.28,20.19c10.86,12.53,24.67,16.37,40.35,13.77,21.9-3.63,36-35.58,25.87-54.66-1-1.86-2.24-3.13-4.39-3a4.59,4.59,0,0,0-4,3.59c-2,6.23-3.7,12.54-5.78,18.73-1.05,3.11-2.6,6.77-6.44,6.48-4.5-.34-5-4.73-5.27-8.14-.89-10.61-1.4-21.26-2-31.89-.9-15.81-1.62-31.65-6.56-46.89-6.75-20.8-19.95-38.55-42-44.19a70.84,70.84,0,0,0-17.58-2.11c-1,0-1.9,0-2.84.05" fill="none"/></clipPath><linearGradient id="linear-gradient-4" x1="385.98" y1="805.17" x2="389.14" y2="805.17" gradientTransform="matrix(410.19, 0, 0, -410.19, -158282.31, 330822.15)" xlink:href="#linear-gradient"/><clipPath id="clip-path-5"><path d="M836,410.83c-2.65-10,1.27-20.88,8.24-28.22,7.46-7.85,19.76-8.75,29.52-12,5.16-1.71,5.55,1.63,5.54,5.85,0,3.47.07,6.92,0,10.39,0,1.68-.07,3.35-.18,5-.67,10.29-3.18,21-11,28.29a20.36,20.36,0,0,1-13.84,5.72c-8.15,0-15.75-5.44-18.27-15.06m28.06-118c-24,.81-50.35,8-65,28.27-5.1,7-8.35,14.37-6.38,23.22,2.17,9.71,10.14,19.19,19.94,21.79,8.32,2.2,17.47-1.9,23.45-7.54,7.29-6.89,7.32-16.62,5.85-25.91-1.77-11.13,4.2-18.23,14.41-17.08,9.06,1,15.51,6.72,20.17,14.19,4.12,6.59,9.71,16.39,5.18,24.1-3,5.06-9.41,7.25-14.61,9.19-7.65,2.86-15.72,4.34-23.68,6.1-16.11,3.55-31.15,9.31-41.06,23.23-7.09,10-11.31,22.73-7.57,34.72,7.86,25.21,39,33.41,60.27,19.67,10.46-6.77,18-16.49,26.44-25.93A103.57,103.57,0,0,0,894.71,441c10.86,12.54,24.67,16.38,40.35,13.78,21.89-3.64,36-35.58,25.87-54.66-1-1.87-2.24-3.14-4.4-3a4.61,4.61,0,0,0-4,3.59c-2,6.24-3.7,12.54-5.79,18.73-1,3.12-2.59,6.77-6.43,6.48-4.5-.34-5-4.73-5.27-8.13-.89-10.62-1.4-21.26-2-31.9-.9-15.81-1.62-31.65-6.57-46.88-6.74-20.8-19.95-38.55-42-44.2a70.94,70.94,0,0,0-17.6-2.11c-.94,0-1.88,0-2.81.05" fill="none"/></clipPath><linearGradient id="linear-gradient-5" x1="385.98" y1="805.45" x2="389.14" y2="805.45" gradientTransform="matrix(410.19, 0, 0, -410.19, -158284.69, 330765.5)" xlink:href="#linear-gradient"/><clipPath id="clip-path-6"><path d="M1027.07,298.41l-51.23.29c-3.62,0-5.78,1.23-3.78,4.65,1.6,2.74,3.42,5.31,4.89,8.15a91.08,91.08,0,0,1,6.77,17.79c3.34,12.31,4.55,25.11,5.09,37.82.9,21,.18,42.23-4.61,62.7A49.79,49.79,0,0,1,980.32,441l-.11.21a24,24,0,0,1-4.52,6.25,15.5,15.5,0,0,1-4.53,3.09c-.62.27-2,.41-1.81,1.36a1.25,1.25,0,0,0,.36.64,3.41,3.41,0,0,0,2.42.91l82.45.71c2.52,0,5.75-.5,6.27-3,.37-1.71-1-3.37-2.54-4.14a32.88,32.88,0,0,0-5-1.42c-5.39-1.62-9.13-6.7-10.82-12.07s-1.67-11.09-1.93-16.71c-.82-17.92-4.47-36.24.34-53.52,4.36-15.66,15.28-28.7,27.37-39.56,3.54-3.18,7.94-6.43,12.61-5.46,5.67,1.17,8.31,8,7.86,13.8s-2.92,11.27-3.22,17.06c-.54,10.39,6.7,20.49,16.49,24s21.36.76,29-6.28,11.41-17.88,10.58-28.25-6-20.18-13.52-27.4c-8.64-8.3-20.58-13.31-32.55-12.82-12.88.54-24.88,7.23-34.27,16.07s-16.51,19.74-23.55,30.54q-.69-18.85-1.39-37.73c-.09-2.58-.31-5.45-2.21-7.2a5.77,5.77,0,0,0-2.37-1.31,15.47,15.47,0,0,0-4.26-.44h-.39" fill="none"/></clipPath><linearGradient id="linear-gradient-6" x1="385.98" y1="805.45" x2="389.14" y2="805.45" gradientTransform="matrix(410.19, 0, 0, -410.19, -158284.69, 330764.27)" xlink:href="#linear-gradient"/><clipPath id="clip-path-7"><path d="M429.42,538.28c-9.37-.93-9.12-8.89-8.85-16.5.29-8.4,1.65-16.89,6.2-24.13s12.78-13.68,21.66-13.47c20.14.49,19.24,29.93,18.32,44-.29,4.43-1.75,9.37-6.87,9.95a89.74,89.74,0,0,1-10.62.36c-1.27,0-2.55,0-3.83,0l-1.51,0c-2.31,0-4.6.1-6.89.1a74.63,74.63,0,0,1-7.61-.33m-26-59.21c-19.15,13.95-31.85,35.82-33.61,59.54s6.87,47.79,22.33,65.8c7.52,8.76,17.27,17,28,21.44a64.1,64.1,0,0,0,37.35,3.23l1.05-.22c20.47-4.51,37.15-19.19,47.78-37a97,97,0,0,0,4.79-9.06c1.43-3.1,7.23-13.69,2.4-16.23-2.09-1.1-3.9.31-5.06,2-2.64,3.92-4.29,8.13-7.47,11.71a42.68,42.68,0,0,1-10.36,8.48A38.57,38.57,0,0,1,464.9,594c-16.61-2.87-33.73-21.39-38.26-40.58-1.49-6.3.32-7.92,6.4-7.87,17.65.17,35.3-.12,52.95-.2,29.75-.15,30.15-.62,26.31-30.66a74.94,74.94,0,0,0-3.11-14c-5.87-17.79-19.74-29.79-37.64-34.67a73.27,73.27,0,0,0-19.3-2.51,84.42,84.42,0,0,0-48.79,15.64" fill="none"/></clipPath><linearGradient id="linear-gradient-7" x1="385.98" y1="805.18" x2="389.14" y2="805.18" gradientTransform="matrix(410.19, 0, 0, -410.19, -158282.31, 330824.27)" xlink:href="#linear-gradient"/><clipPath id="clip-path-8"><path d="M1147.36,538.28c-9.37-.93-9.12-8.89-8.85-16.5.29-8.4,1.65-16.89,6.2-24.13s12.78-13.68,21.66-13.47c20.14.49,19.25,29.93,18.32,44-.29,4.43-1.75,9.37-6.86,9.95a90,90,0,0,1-10.63.36c-1.27,0-2.55,0-3.82,0l-1.52,0c-2.3,0-4.6.1-6.89.1a74.63,74.63,0,0,1-7.61-.33m-25.95-59.21c-19.16,13.95-31.85,35.82-33.62,59.54s6.87,47.79,22.34,65.8c7.51,8.76,17.26,17,28,21.44a64.1,64.1,0,0,0,37.35,3.23l1-.22c20.48-4.51,37.15-19.19,47.78-37a94.64,94.64,0,0,0,4.79-9.06c1.43-3.1,7.24-13.69,2.4-16.23-2.08-1.1-3.9.31-5.06,2-2.64,3.92-4.29,8.13-7.47,11.71a42.35,42.35,0,0,1-10.37,8.48,38.5,38.5,0,0,1-25.77,5.11c-16.62-2.87-33.74-21.39-38.27-40.58-1.48-6.3.33-7.92,6.4-7.87,17.65.17,35.31-.12,53-.2,29.74-.15,30.15-.62,26.3-30.66a74.94,74.94,0,0,0-3.11-14c-5.87-17.79-19.74-29.79-37.64-34.67a73.21,73.21,0,0,0-19.3-2.51,84.39,84.39,0,0,0-48.78,15.64" fill="none"/></clipPath><linearGradient id="linear-gradient-8" x1="385.98" y1="805.16" x2="389.14" y2="805.16" gradientTransform="matrix(410.19, 0, 0, -410.19, -158282.24, 330817.35)" xlink:href="#linear-gradient"/><clipPath id="clip-path-9"><path d="M841.26,470.18c-5.57,0-5.41,2.84-2.25,6.29,4.7,5.14,7,11.52,8.88,17.95,11.18,38.15,10.25,76.4.44,114.64-1.28,5-3.7,9.41-9.13,11.33-1.65.58-4.49.83-3.59,3.53a2.52,2.52,0,0,0,2.72,1.53c6.92-.07,13.82-.07,20.74-.06,7.68,0,15.36.05,23,.09l16.13.1,19.79.1c2.69,0,5.44.2,8.13.08,2.11-.08,3.65-1.07,4.07-3.23.8-4-3.86-4.08-6.52-5.11a25.73,25.73,0,0,1-10.07-7.34c-6.38-7.42-7.12-16.82-7.5-26.14-.46-11.51-1-23-1.51-34.5-1-23-1.94-46-1.94-69-.16-5.39-1.05-9.7-7.52-9.78-17.75-.23-35.5-.46-53.25-.46h-.67" fill="none"/></clipPath><linearGradient id="linear-gradient-9" x1="385.98" y1="805.17" x2="389.14" y2="805.17" gradientTransform="matrix(410.19, 0, 0, -410.19, -158282.16, 330820.39)" xlink:href="#linear-gradient"/><clipPath id="clip-path-10"><path d="M347,494.9h0l.45-.73Z" fill="none"/></clipPath><linearGradient id="linear-gradient-10" x1="385.98" y1="805.27" x2="389.14" y2="805.27" gradientTransform="matrix(410.19, 0, 0, -410.19, -158279.47, 330810.34)" xlink:href="#linear-gradient"/><clipPath id="clip-path-11"><path d="M370.17,427c-12.92,20.59-23.89,42.39-35.89,63.56-.43.76-6.47,10.4-10.47,16.75-.29.46-.8,1-1.23.41-.61-.87-.34-2.24-.35-3.24,0-1.42-.05-2.84-.07-4.26q-.09-4.28-.19-8.53-.17-6.64-.43-13.29c-.13-3-.54-6.47-3.1-8a9.21,9.21,0,0,0-4.88-.91l-52.31-.19a9.32,9.32,0,0,0-3.95.59c-1.89.88-1.27,2.76-.45,4.27.46.84,1,1.65,1.51,2.45a87.53,87.53,0,0,1,5.38,8.84,65.31,65.31,0,0,1,3.76,9.55,123,123,0,0,1,3.82,17.38c4.59,29.25,4.2,59.37-2.27,88.26-1,4.39-2.14,8.83-4.41,12.72s-5.81,7.24-10.18,8.34c-.9,1.29,1.32,2.43,2.89,2.44l82.64.7c2.06,0,4.52-.19,5.49-2s-.56-4.42-2.57-5.39a9.8,9.8,0,0,0-1.53-.58c-1.61-.47-3.32-.64-4.9-1.21-3.53-1.25-6.17-4.34-7.69-7.77a38.53,38.53,0,0,1-2.52-10.91C325.15,588,324.39,579,323.85,570s-.85-18.06-1.06-27.1c0-1.42,0-2.82-.07-4.24a12.14,12.14,0,0,1,.18-3.71,13.56,13.56,0,0,1,1.74-3.13c1.92-3.31,3.88-6.61,5.85-9.89s3.84-6.37,5.77-9.54c.34-.5.67-1,1-1.51l2.72-4.09,4-6.08,4.94-7.45,5.44-8.2,5.54-8.35,5.22-7.88,4.51-6.8q1.69-2.55,3.38-5.1A31.33,31.33,0,0,1,378,450.9a23.86,23.86,0,0,1,6.34-4.22c.37-.16.76-.31,1.14-.45,5.92-2.15,12.44-1.15,18.27.81,3,1,6,2.28,9,3.22,12.76,3.88,25.6.23,33.13-9.34,13.64-17.34,3.19-42.33-18-46.23a38.47,38.47,0,0,0-7.06-.64c-20.76,0-40.13,16.21-50.62,32.9" fill="none"/></clipPath><linearGradient id="linear-gradient-11" x1="385.98" y1="805.24" x2="389.14" y2="805.24" gradientTransform="matrix(410.19, 0, 0, -410.19, -158282.9, 330813.31)" xlink:href="#linear-gradient"/><clipPath id="clip-path-12"><path d="M1015.17,575.72l.37-.76-3.78,7.42.41-.55,1.25-2.54c.74-1.49,1.47-3,2.2-4.48l-.45.91" fill="none"/></clipPath><linearGradient id="linear-gradient-12" x1="385.98" y1="805.11" x2="389.14" y2="805.11" gradientTransform="matrix(410.19, 0, 0, -410.19, -158281.49, 330828.91)" xlink:href="#linear-gradient"/><clipPath id="clip-path-13"><path d="M998.75,556.46c.89,2.5,1.8,5,2.71,7.48l-9.76-29.41c2,7.41,4.47,14.7,7,21.93" fill="none"/></clipPath><linearGradient id="linear-gradient-13" x1="385.98" y1="805.16" x2="389.14" y2="805.16" gradientTransform="matrix(410.19, 0, 0, -410.19, -158282.49, 330819.52)" xlink:href="#linear-gradient"/><clipPath id="clip-path-14"><path d="M1015.54,575l-.37.76.45-.91Z" fill="none"/></clipPath><linearGradient id="linear-gradient-14" x1="385.98" y1="805.12" x2="389.14" y2="805.12" gradientTransform="matrix(410.19, 0.01, 0.01, -410.19, -158290.14, 330823.69)" xlink:href="#linear-gradient"/><clipPath id="clip-path-15"><polygon points="1015.54 574.96 1015.62 574.81 1015.62 574.81 1015.54 574.96" fill="none"/></clipPath><linearGradient id="linear-gradient-15" x1="387.14" y1="805.24" x2="390.26" y2="805.24" gradientTransform="matrix(201.13, 0.03, 0.03, -201.13, -77191.17, 162526.01)" xlink:href="#linear-gradient"/><clipPath id="clip-path-16"><path d="M1079.79,396.87c-7.56,8.87-7.5,19.69,1.08,30.94,5.73,7.53,7.07,15,2.75,23.45L1082,454.4c-1.79,3.49-3.47,7-5.16,10.58q-4.11,8.63-8.16,17.28-5,10.67-10,21.35Q1053.36,515,1048,526.45q-5.07,10.86-10.17,21.71-4.24,9-8.53,18c-1,2.17-2.08,4.34-3.14,6.5l-1.05,2.15c-.74,1.49-1.46,3-2.2,4.48-.46.94-.93,1.91-1.46,2.82s-1.62,2.66-3,1.87a3.51,3.51,0,0,1-1.37-1.6L1011,563.94c-.91-2.49-1.83-5-2.72-7.48-2.58-7.23-5-14.52-7-21.93a97.86,97.86,0,0,1-3.57-21.41c-.53-12.49,2.07-24.69,9.9-36.31,5.12-7.68-4.15-8.8-10.64-8.83l-9.17.33c-12.21.57-24.44,1-36.66,1.36q-9.16.31-18.33.66c-.53,0-1.2,0-1.94,0-4-.05-10.45-.1-10.47,4.77a5.45,5.45,0,0,0,1.46,3.44c1.23,1.49,2.94,2.76,4.05,3.88a118.76,118.76,0,0,1,10,11.6,102.5,102.5,0,0,1,15,27.32c5.83,16.4,11.36,32.92,16.81,49.48,5.81,17.67,11.53,35.38,17.43,53,1,2.87,2.21,6.48,4.4,7.91,5.22,3.39,12.45,2.73,18.06-.52a19,19,0,0,0,4.49-3.56,16.11,16.11,0,0,0,2.69-3.86c5.49-11.25,10.85-22.52,16.6-33.66,6.56-12.78,12.63-25.81,18.79-38.79,8-16.9,16-33.83,24.07-50.69,9.58-20,18.78-40.41,31.65-58.66q4.34-6.17,9.15-12c1.43-1.73,3-3.36,4.33-5.18a36.6,36.6,0,0,0,5-9.56,22.56,22.56,0,0,0,1.16-10.86c-1.06-6.37-5.82-11-11.41-13.82a29.89,29.89,0,0,0-13.36-3.2,27.2,27.2,0,0,0-20.82,9.45" fill="none"/></clipPath><linearGradient id="linear-gradient-16" x1="385.98" y1="805.23" x2="389.14" y2="805.23" gradientTransform="matrix(410.19, 0, 0, -410.19, -158282.76, 330807.33)" xlink:href="#linear-gradient"/><clipPath id="clip-path-17"><path d="M758.2,453.86h0c0-.12,0-.23,0-.35Z" fill="none"/></clipPath><linearGradient id="linear-gradient-17" x1="388.5" y1="809.86" x2="391.67" y2="809.86" gradientTransform="matrix(27.67, 0, 0, -27.67, -10032.11, 22859.2)" xlink:href="#linear-gradient"/><clipPath id="clip-path-18"><path d="M715.16,464.14l0,0c0-.14,0-.29,0-.43Z" fill="none"/></clipPath><linearGradient id="linear-gradient-18" x1="386.69" y1="807.34" x2="389.85" y2="807.34" gradientTransform="matrix(54.58, -0.02, -0.02, -54.58, -20463.38, 44534.02)" xlink:href="#linear-gradient"/><clipPath id="clip-path-19"><path d="M617.92,135.8c-15.19,2.55-29,7.74-41,17.46-8.81,7.14-15.32,15.68-16.57,27.44-1.52,14.37,9.44,25.94,21.37,28.56,17.13,3.76,34-9,35.66-26.51.54-5.42,1.23-10.85,2.25-16.19a25.51,25.51,0,0,1,7.71-13.71c10.44-10,23.06-10.57,36.14-7.75,8.22,1.78,15.5,6,22.33,10.9,19.06,13.57,30.57,32.13,34.54,55a313.69,313.69,0,0,1,4.08,36.57l0-.1v.33c.06,1.08.14,2.17.19,3.25,2,43.34-2.74,87-4,130.36q-1.17,41.19-2.33,82.37a1.63,1.63,0,0,1,0,.39c0,1.4-.78,1.75-1.32,1.82H699.43a5.18,5.18,0,0,0-5.18,5.18v2.48a5.18,5.18,0,0,0,5.18,5.17h14.94a4.63,4.63,0,0,1,4.52,4.64c.59,19,1.23,38,1.56,56.95q.19,12.82.87,25.66c.88,16.9,3,34.6,15.4,47.33a42.15,42.15,0,0,0,25.64,12.1,43.07,43.07,0,0,0,15.3-1.07c14.33-3.72,26.34-14.93,31.67-28.74,1.9-4.94,3.53-9.86,2.51-15.21a4.4,4.4,0,0,0-1.3-2.68c-4.62-3.64-10.1,10-11.47,12.74-2,4-4.48,8.38-9,9.88-5.58,1.87-10.1-3.81-12.21-8.23-6.37-13.33-8.16-28.25-9.27-42.81-1.66-21.87-3.09-43.77-4.12-65.69-.12-4.19,3.49-4.8,5.1-4.87h35.18a5.18,5.18,0,0,0,5.18-5.17v-2.48a5.18,5.18,0,0,0-5.18-5.18h-33.6c-6,.23-7.29-2.46-7.56-4-2-60.39,1.23-120.74.1-181.14-.54-29-1.52-56.78-13.85-83.67-5.8-12.66-13.25-24.16-23.51-33.68-12.88-12-28.32-19-45.11-23.55A159,159,0,0,0,639.61,134a130,130,0,0,0-21.69,1.8" fill="none"/></clipPath><linearGradient id="linear-gradient-19" x1="385.98" y1="805.45" x2="389.14" y2="805.45" gradientTransform="matrix(410.19, 0, 0, -410.19, -158284.65, 330769.19)" xlink:href="#linear-gradient"/><clipPath id="clip-path-20"><path d="M1257.58,499.06a23.32,23.32,0,0,1,4.42-20.28,21,21,0,0,1,16.24-8.46c11.59,0,20.52,7.19,22.86,17.66a24,24,0,0,1-3,18.65,20.56,20.56,0,0,1-13.65,9.62,24.14,24.14,0,0,1-4.88.5,22.28,22.28,0,0,1-22-17.69m13.68-33.48a28.59,28.59,0,0,0-17.42,12.73,28.92,28.92,0,0,0,6.6,37.9,29.9,29.9,0,0,0,24.67,6,29.11,29.11,0,0,0,24.14-28.69c0-.83-.07-1.67-.13-2.5,0-.53-.11-1.07-.19-1.6a28.06,28.06,0,0,0-14.56-21.19,29.11,29.11,0,0,0-14.5-3.86,33.53,33.53,0,0,0-8.61,1.17" fill="none"/></clipPath><linearGradient id="linear-gradient-20" x1="385.98" y1="805.25" x2="389.14" y2="805.25" gradientTransform="matrix(410.19, 0, 0, -410.19, -158283.02, 330799.32)" xlink:href="#linear-gradient"/><clipPath id="clip-path-21"><path d="M1275,492.26c0-.22,0-.39,0-.56,0-2.41,0-4.82,0-7.23,0-.3,0-.53.39-.59a15,15,0,0,1,6.25.11,4,4,0,0,1,3.17,3,3.71,3.71,0,0,1-2.18,4.45,8.79,8.79,0,0,1-3.37.79c-.56,0-1.12,0-1.69,0H1275m5.74-13.57c-3.07,0-6.13.22-9.19.4-1.16.07-2.3.28-3.46.43v29h6.74V497c1.63.06,3.19,0,4.74.19,2.5.28,3.79,1.54,4.37,4,.26,1.09.49,2.2.81,3.28.37,1.24.82,2.46,1.25,3.67a.68.68,0,0,0,.77.47c.76,0,1.53,0,2.29,0h4.3c0-.13-.06-.21-.09-.29-.52-1.61-1.07-3.21-1.56-4.84s-.81-3.33-1.38-4.94a6.2,6.2,0,0,0-3.88-4c-.11,0-.2-.2-.29-.3a2.06,2.06,0,0,1,.33-.27,21.67,21.67,0,0,0,2.59-1.31,6.49,6.49,0,0,0,3-7,7.49,7.49,0,0,0-4.93-5.89,15.38,15.38,0,0,0-6.05-1.11h-.32" fill="none"/></clipPath><linearGradient id="linear-gradient-21" x1="385.98" y1="805.25" x2="389.14" y2="805.25" gradientTransform="matrix(410.19, 0, 0, -410.19, -158283.43, 330799.15)" xlink:href="#linear-gradient"/></defs><title>logo-blue</title><g clip-path="url(#clip-path)"><rect x="1146.95" y="294.44" width="174.01" height="172.18" transform="translate(-5.24 17.42) rotate(-0.81)" fill="url(#linear-gradient)"/></g><g clip-path="url(#clip-path-2)"><rect x="50.52" y="413.76" width="200.56" height="228.32" transform="translate(-7.42 2.18) rotate(-0.81)" fill="url(#linear-gradient-2)"/></g><g clip-path="url(#clip-path-3)"><rect x="513.4" y="240.1" width="191.75" height="218.29" transform="translate(-4.86 8.62) rotate(-0.81)" fill="url(#linear-gradient-3)"/></g><g clip-path="url(#clip-path-4)"><rect x="528.24" y="462.84" width="182.72" height="170.27" transform="translate(-7.66 8.78) rotate(-0.81)" fill="url(#linear-gradient-4)"/></g><g clip-path="url(#clip-path-5)"><rect x="789.5" y="291.51" width="182.72" height="170.27" transform="translate(-5.22 12.44) rotate(-0.81)" fill="url(#linear-gradient-5)"/></g><g clip-path="url(#clip-path-6)"><rect x="968.09" y="296.78" width="175.41" height="158.63" transform="translate(-5.19 14.91) rotate(-0.81)" fill="url(#linear-gradient-6)"/></g><g clip-path="url(#clip-path-7)"><rect x="366.91" y="462.38" width="152.68" height="170.3" transform="translate(-7.67 6.3) rotate(-0.81)" fill="url(#linear-gradient-7)"/></g><g clip-path="url(#clip-path-8)"><rect x="1084.85" y="462.38" width="152.68" height="170.3" transform="translate(-7.6 16.41) rotate(-0.81)" fill="url(#linear-gradient-8)"/></g><g clip-path="url(#clip-path-9)"><rect x="833.61" y="469.51" width="98.51" height="157.04" transform="translate(-7.63 12.49) rotate(-0.81)" fill="url(#linear-gradient-9)"/></g><g clip-path="url(#clip-path-10)"><rect x="347.04" y="494.18" width="0.5" height="0.73" transform="translate(-6.92 4.94) rotate(-0.81)" fill="url(#linear-gradient-10)"/></g><g clip-path="url(#clip-path-11)"><rect x="251.94" y="392.61" width="209.2" height="233.61" transform="translate(-7.14 5.07) rotate(-0.81)" fill="url(#linear-gradient-11)"/></g><g clip-path="url(#clip-path-12)"><rect x="1011.71" y="574.78" width="3.96" height="7.63" transform="translate(-8.05 14.33) rotate(-0.81)" fill="url(#linear-gradient-12)"/></g><g clip-path="url(#clip-path-13)"><rect x="991.49" y="534.46" width="10.17" height="29.54" transform="translate(-7.64 14.09) rotate(-0.81)" fill="url(#linear-gradient-13)"/></g><g clip-path="url(#clip-path-14)"><rect x="1015.16" y="574.81" width="0.46" height="0.92" transform="translate(-8.01 14.38) rotate(-0.81)" fill="url(#linear-gradient-14)"/></g><g clip-path="url(#clip-path-15)"><rect x="1015.54" y="574.81" width="0.08" height="0.16" transform="translate(-8.07 14.49) rotate(-0.81)" fill="url(#linear-gradient-15)"/></g><g clip-path="url(#clip-path-16)"><rect x="918.58" y="385.99" width="209.12" height="250.59" transform="translate(-7.1 14.46) rotate(-0.81)" fill="url(#linear-gradient-16)"/></g><g clip-path="url(#clip-path-17)"><rect x="758.19" y="453.51" width="0.02" height="0.35" transform="translate(-6.28 10.67) rotate(-0.8)" fill="url(#linear-gradient-17)"/></g><g clip-path="url(#clip-path-18)"><rect x="715.16" y="463.75" width="0.03" height="0.42" transform="translate(-6.33 9.91) rotate(-0.79)" fill="url(#linear-gradient-18)"/></g><g clip-path="url(#clip-path-19)"><rect x="555.36" y="132.24" width="260.95" height="495.54" transform="translate(-5.28 9.7) rotate(-0.81)" fill="url(#linear-gradient-19)"/></g><g clip-path="url(#clip-path-20)"><rect x="1248.31" y="463.98" width="61.36" height="60.28" transform="translate(-6.83 18.06) rotate(-0.81)" fill="url(#linear-gradient-20)"/></g><g clip-path="url(#clip-path-21)"><rect x="1267.93" y="478.51" width="25.68" height="30.3" transform="translate(-6.83 18.09) rotate(-0.81)" fill="url(#linear-gradient-21)"/></g><text transform="translate(805.6 261.4) scale(1 1.01)" font-size="63.29" fill="#1d1d1b" font-family="Poppins-Regular, Poppins" letter-spacing="0.8em">STUDI<tspan x="424.38" y="0" letter-spacing="0em">O</tspan></text></svg>